M48
; DRILL file {KiCad 7.0.2} date Thu Dec 12 08:46:53 2024
; FORMAT={-:-/ absolute / inch / decimal}
; #@! TF.CreationDate,2024-12-12T08:46:53-06:00
; #@! TF.GenerationSoftware,Kicad,Pcbnew,7.0.2
; #@! TF.FileFunction,Plated,1,2,PTH
FMAT,2
INCH
; #@! TA.AperFunction,Plated,PTH,ViaDrill
T1C0.0079
; #@! TA.AperFunction,Plated,PTH,ComponentDrill
T2C0.0079
; #@! TA.AperFunction,Plated,PTH,ViaDrill
T3C0.0157
; #@! TA.AperFunction,Plated,PTH,ComponentDrill
T4C0.0394
%
G90
G05
T1
X3.4113Y-1.7662
T2
X3.4077Y-1.6277
X3.4077Y-1.6723
X3.43Y-1.65
X3.4523Y-1.6277
X3.4523Y-1.6723
T3
X3.2Y-1.125
X3.238Y-1.616
X3.24Y-1.684
X3.325Y-1.0
X3.325Y-1.125
X3.325Y-1.25
X3.459Y-1.438
X3.56Y-1.65
T4
X3.1Y-1.0
X3.1Y-1.2
X3.1Y-1.3
X3.1Y-1.4
X3.1Y-1.5
X3.1Y-1.6
X3.1Y-1.7
X3.1Y-1.8
X3.1Y-1.9
X3.1Y-2.0
X3.1Y-2.1
X3.1Y-2.3
X3.2Y-1.0
X3.2Y-2.3
X3.5Y-1.0
X3.5Y-2.3
X3.6Y-1.0
X3.6Y-1.2
X3.6Y-1.3
X3.6Y-1.4
X3.6Y-1.5
X3.6Y-1.8
X3.6Y-1.9
X3.6Y-2.0
X3.6Y-2.1
X3.6Y-2.3
T0
M30
