%TF.GenerationSoftware,KiCad,Pcbnew,7.0.2*%
%TF.CreationDate,2024-12-12T08:46:51-06:00*%
%TF.ProjectId,om_ADC,6f6d5f41-4443-42e6-9b69-6361645f7063,rev?*%
%TF.SameCoordinates,Original*%
%TF.FileFunction,Soldermask,Top*%
%TF.FilePolarity,Negative*%
%FSLAX46Y46*%
G04 Gerber Fmt 4.6, Leading zero omitted, Abs format (unit mm)*
G04 Created by KiCad (PCBNEW 7.0.2) date 2024-12-12 08:46:51*
%MOMM*%
%LPD*%
G01*
G04 APERTURE LIST*
G04 Aperture macros list*
%AMRoundRect*
0 Rectangle with rounded corners*
0 $1 Rounding radius*
0 $2 $3 $4 $5 $6 $7 $8 $9 X,Y pos of 4 corners*
0 Add a 4 corners polygon primitive as box body*
4,1,4,$2,$3,$4,$5,$6,$7,$8,$9,$2,$3,0*
0 Add four circle primitives for the rounded corners*
1,1,$1+$1,$2,$3*
1,1,$1+$1,$4,$5*
1,1,$1+$1,$6,$7*
1,1,$1+$1,$8,$9*
0 Add four rect primitives between the rounded corners*
20,1,$1+$1,$2,$3,$4,$5,0*
20,1,$1+$1,$4,$5,$6,$7,0*
20,1,$1+$1,$6,$7,$8,$9,0*
20,1,$1+$1,$8,$9,$2,$3,0*%
G04 Aperture macros list end*
%ADD10RoundRect,0.237500X0.300000X0.237500X-0.300000X0.237500X-0.300000X-0.237500X0.300000X-0.237500X0*%
%ADD11RoundRect,0.237500X-0.237500X0.300000X-0.237500X-0.300000X0.237500X-0.300000X0.237500X0.300000X0*%
%ADD12R,1.700000X1.700000*%
%ADD13O,1.700000X1.700000*%
%ADD14RoundRect,0.237500X-0.300000X-0.237500X0.300000X-0.237500X0.300000X0.237500X-0.300000X0.237500X0*%
%ADD15RoundRect,0.237500X-0.237500X0.250000X-0.237500X-0.250000X0.237500X-0.250000X0.237500X0.250000X0*%
%ADD16C,0.500000*%
%ADD17RoundRect,0.050000X-1.414214X0.000000X0.000000X-1.414214X1.414214X0.000000X0.000000X1.414214X0*%
%ADD18RoundRect,0.050000X-0.226274X0.127279X0.127279X-0.226274X0.226274X-0.127279X-0.127279X0.226274X0*%
%ADD19RoundRect,0.050000X-0.127279X-0.226274X0.226274X0.127279X0.127279X0.226274X-0.226274X-0.127279X0*%
%ADD20RoundRect,0.050000X-0.106066X0.000000X0.000000X-0.106066X0.106066X0.000000X0.000000X0.106066X0*%
G04 APERTURE END LIST*
D10*
%TO.C,C3*%
X87857500Y-33655000D03*
X86132500Y-33655000D03*
%TD*%
D11*
%TO.C,C2*%
X81280000Y-41047500D03*
X81280000Y-42772500D03*
%TD*%
D10*
%TO.C,C6*%
X87857500Y-37465000D03*
X86132500Y-37465000D03*
%TD*%
%TO.C,C8*%
X88746500Y-53340000D03*
X87021500Y-53340000D03*
%TD*%
D12*
%TO.C,J5*%
X78740000Y-25400000D03*
D13*
X81280000Y-25400000D03*
%TD*%
D12*
%TO.C,J6*%
X88900000Y-58420000D03*
D13*
X91440000Y-58420000D03*
%TD*%
D12*
%TO.C,J7*%
X88900000Y-25400000D03*
D13*
X91440000Y-25400000D03*
%TD*%
D10*
%TO.C,C10*%
X88746500Y-49530000D03*
X87021500Y-49530000D03*
%TD*%
%TO.C,C7*%
X87857500Y-35560000D03*
X86132500Y-35560000D03*
%TD*%
D11*
%TO.C,C1*%
X83185000Y-41047500D03*
X83185000Y-42772500D03*
%TD*%
D10*
%TO.C,C9*%
X88746500Y-51435000D03*
X87021500Y-51435000D03*
%TD*%
D14*
%TO.C,C5*%
X82322500Y-37084000D03*
X84047500Y-37084000D03*
%TD*%
%TO.C,C4*%
X82322500Y-35179000D03*
X84047500Y-35179000D03*
%TD*%
D12*
%TO.C,J1*%
X91440000Y-30480000D03*
D13*
X91440000Y-33020000D03*
X91440000Y-35560000D03*
X91440000Y-38100000D03*
%TD*%
D12*
%TO.C,J2*%
X91440000Y-45720000D03*
D13*
X91440000Y-48260000D03*
X91440000Y-50800000D03*
X91440000Y-53340000D03*
%TD*%
D15*
%TO.C,R1*%
X85852000Y-56595000D03*
X85852000Y-58420000D03*
%TD*%
D10*
%TO.C,C11*%
X88746500Y-47625000D03*
X87021500Y-47625000D03*
%TD*%
D16*
%TO.C,U1*%
X87687685Y-41344315D03*
X87122000Y-41910000D03*
D17*
X87122000Y-41910000D03*
D16*
X87687685Y-42475685D03*
D18*
X86662381Y-39682614D03*
X86308827Y-40036167D03*
X85955274Y-40389720D03*
X85601720Y-40743274D03*
X85248167Y-41096827D03*
X84894614Y-41450381D03*
D19*
X84894614Y-42369619D03*
X85248167Y-42723173D03*
X85601720Y-43076726D03*
X85955274Y-43430280D03*
X86308827Y-43783833D03*
X86662381Y-44137386D03*
D18*
X87581619Y-44137386D03*
X87935173Y-43783833D03*
X88288726Y-43430280D03*
X88642280Y-43076726D03*
X88995833Y-42723173D03*
X89349386Y-42369619D03*
D19*
X89349386Y-41450381D03*
X88995833Y-41096827D03*
X88642280Y-40743274D03*
X88288726Y-40389720D03*
X87935173Y-40036167D03*
X87581619Y-39682614D03*
D20*
X87122000Y-39470482D03*
X84682482Y-41910000D03*
X87122000Y-44349518D03*
X89561518Y-41910000D03*
%TD*%
D15*
%TO.C,R2*%
X84328000Y-56595000D03*
X84328000Y-58420000D03*
%TD*%
D12*
%TO.C,J4*%
X78740000Y-58420000D03*
D13*
X81280000Y-58420000D03*
%TD*%
D12*
%TO.C,J3*%
X78740000Y-30480000D03*
D13*
X78740000Y-33020000D03*
X78740000Y-35560000D03*
X78740000Y-38100000D03*
X78740000Y-40640000D03*
X78740000Y-43180000D03*
X78740000Y-45720000D03*
X78740000Y-48260000D03*
X78740000Y-50800000D03*
X78740000Y-53340000D03*
%TD*%
M02*
