%TF.GenerationSoftware,KiCad,Pcbnew,7.0.2*%
%TF.CreationDate,2024-12-12T08:46:51-06:00*%
%TF.ProjectId,om_ADC,6f6d5f41-4443-42e6-9b69-6361645f7063,rev?*%
%TF.SameCoordinates,Original*%
%TF.FileFunction,Copper,L2,Bot*%
%TF.FilePolarity,Positive*%
%FSLAX46Y46*%
G04 Gerber Fmt 4.6, Leading zero omitted, Abs format (unit mm)*
G04 Created by KiCad (PCBNEW 7.0.2) date 2024-12-12 08:46:51*
%MOMM*%
%LPD*%
G01*
G04 APERTURE LIST*
%TA.AperFunction,ComponentPad*%
%ADD10R,1.700000X1.700000*%
%TD*%
%TA.AperFunction,ComponentPad*%
%ADD11O,1.700000X1.700000*%
%TD*%
%TA.AperFunction,ComponentPad*%
%ADD12C,0.500000*%
%TD*%
%TA.AperFunction,ViaPad*%
%ADD13C,0.800000*%
%TD*%
%TA.AperFunction,ViaPad*%
%ADD14C,0.400000*%
%TD*%
%TA.AperFunction,Conductor*%
%ADD15C,0.800000*%
%TD*%
G04 APERTURE END LIST*
D10*
%TO.P,J5,1,Pin_1*%
%TO.N,Earth*%
X78740000Y-25400000D03*
D11*
%TO.P,J5,2,Pin_2*%
X81280000Y-25400000D03*
%TD*%
D10*
%TO.P,J6,1,Pin_1*%
%TO.N,Earth*%
X88900000Y-58420000D03*
D11*
%TO.P,J6,2,Pin_2*%
X91440000Y-58420000D03*
%TD*%
D10*
%TO.P,J7,1,Pin_1*%
%TO.N,/VREF*%
X88900000Y-25400000D03*
D11*
%TO.P,J7,2,Pin_2*%
X91440000Y-25400000D03*
%TD*%
D10*
%TO.P,J1,1,Pin_1*%
%TO.N,Net-(J1-Pin_1)*%
X91440000Y-30480000D03*
D11*
%TO.P,J1,2,Pin_2*%
%TO.N,Net-(J1-Pin_2)*%
X91440000Y-33020000D03*
%TO.P,J1,3,Pin_3*%
%TO.N,Net-(J1-Pin_3)*%
X91440000Y-35560000D03*
%TO.P,J1,4,Pin_4*%
%TO.N,Net-(J1-Pin_4)*%
X91440000Y-38100000D03*
%TD*%
D10*
%TO.P,J2,1,Pin_1*%
%TO.N,Net-(J2-Pin_1)*%
X91440000Y-45720000D03*
D11*
%TO.P,J2,2,Pin_2*%
%TO.N,Net-(J2-Pin_2)*%
X91440000Y-48260000D03*
%TO.P,J2,3,Pin_3*%
%TO.N,Net-(J2-Pin_3)*%
X91440000Y-50800000D03*
%TO.P,J2,4,Pin_4*%
%TO.N,Net-(J2-Pin_4)*%
X91440000Y-53340000D03*
%TD*%
D12*
%TO.P,U1,0,PAD*%
%TO.N,Earth*%
X86556315Y-41344315D03*
X87687685Y-41344315D03*
X87122000Y-41910000D03*
X86556315Y-42475685D03*
X87687685Y-42475685D03*
%TD*%
D10*
%TO.P,J4,1,Pin_1*%
%TO.N,+3V3*%
X78740000Y-58420000D03*
D11*
%TO.P,J4,2,Pin_2*%
X81280000Y-58420000D03*
%TD*%
D10*
%TO.P,J3,1,Pin_1*%
%TO.N,Net-(J3-Pin_1)*%
X78740000Y-30480000D03*
D11*
%TO.P,J3,2,Pin_2*%
%TO.N,Net-(J3-Pin_2)*%
X78740000Y-33020000D03*
%TO.P,J3,3,Pin_3*%
%TO.N,Net-(J3-Pin_3)*%
X78740000Y-35560000D03*
%TO.P,J3,4,Pin_4*%
%TO.N,Net-(J3-Pin_4)*%
X78740000Y-38100000D03*
%TO.P,J3,5,Pin_5*%
%TO.N,Net-(J3-Pin_5)*%
X78740000Y-40640000D03*
%TO.P,J3,6,Pin_6*%
%TO.N,Net-(J3-Pin_6)*%
X78740000Y-43180000D03*
%TO.P,J3,7,Pin_7*%
%TO.N,Net-(J3-Pin_7)*%
X78740000Y-45720000D03*
%TO.P,J3,8,Pin_8*%
%TO.N,Net-(J3-Pin_8)*%
X78740000Y-48260000D03*
%TO.P,J3,9,Pin_9*%
%TO.N,Net-(J3-Pin_9)*%
X78740000Y-50800000D03*
%TO.P,J3,10,Pin_10*%
%TO.N,Net-(J3-Pin_10)*%
X78740000Y-53340000D03*
%TD*%
D13*
%TO.N,+3V3*%
X82245200Y-41047500D03*
X87857500Y-36525200D03*
%TO.N,Earth*%
X84455000Y-28575000D03*
X84455000Y-31750000D03*
X84455000Y-25400000D03*
X82296000Y-42772500D03*
X81280000Y-28575000D03*
D14*
X86648177Y-44861500D03*
D13*
X90424000Y-41910000D03*
%TD*%
D15*
%TO.N,+3V3*%
X81280000Y-42012700D02*
X81280000Y-58420000D01*
X87857500Y-36525200D02*
X86767500Y-36525200D01*
X82245200Y-41047500D02*
X81280000Y-42012700D01*
X86767500Y-36525200D02*
X82245200Y-41047500D01*
%TD*%
%TA.AperFunction,Conductor*%
%TO.N,Earth*%
G36*
X94177039Y-23388185D02*
G01*
X94222794Y-23440989D01*
X94234000Y-23492500D01*
X94234000Y-60327500D01*
X94214315Y-60394539D01*
X94161511Y-60440294D01*
X94110000Y-60451500D01*
X76070000Y-60451500D01*
X76002961Y-60431815D01*
X75957206Y-60379011D01*
X75946000Y-60327500D01*
X75946000Y-59289748D01*
X77689500Y-59289748D01*
X77701132Y-59348230D01*
X77745447Y-59414552D01*
X77811769Y-59458867D01*
X77870251Y-59470500D01*
X77870252Y-59470500D01*
X79609749Y-59470500D01*
X79638989Y-59464683D01*
X79668231Y-59458867D01*
X79734552Y-59414552D01*
X79778867Y-59348231D01*
X79790500Y-59289748D01*
X79790500Y-58419999D01*
X80224417Y-58419999D01*
X80244699Y-58625932D01*
X80244700Y-58625934D01*
X80304768Y-58823954D01*
X80402315Y-59006450D01*
X80453608Y-59068952D01*
X80533589Y-59166410D01*
X80613570Y-59232047D01*
X80693550Y-59297685D01*
X80876046Y-59395232D01*
X81074066Y-59455300D01*
X81280000Y-59475583D01*
X81485934Y-59455300D01*
X81683954Y-59395232D01*
X81866450Y-59297685D01*
X82026410Y-59166410D01*
X82157685Y-59006450D01*
X82255232Y-58823954D01*
X82315300Y-58625934D01*
X82335583Y-58420000D01*
X82315300Y-58214066D01*
X82255232Y-58016046D01*
X82157685Y-57833550D01*
X82026410Y-57673590D01*
X81925835Y-57591050D01*
X81886501Y-57533304D01*
X81880500Y-57495197D01*
X81880500Y-53340000D01*
X90384417Y-53340000D01*
X90404699Y-53545932D01*
X90404700Y-53545934D01*
X90464768Y-53743954D01*
X90562315Y-53926450D01*
X90613608Y-53988952D01*
X90693589Y-54086410D01*
X90773570Y-54152047D01*
X90853550Y-54217685D01*
X91036046Y-54315232D01*
X91234066Y-54375300D01*
X91440000Y-54395583D01*
X91645934Y-54375300D01*
X91843954Y-54315232D01*
X92026450Y-54217685D01*
X92186410Y-54086410D01*
X92317685Y-53926450D01*
X92415232Y-53743954D01*
X92475300Y-53545934D01*
X92495583Y-53340000D01*
X92475300Y-53134066D01*
X92415232Y-52936046D01*
X92317685Y-52753550D01*
X92252047Y-52673569D01*
X92186410Y-52593589D01*
X92088952Y-52513608D01*
X92026450Y-52462315D01*
X91843954Y-52364768D01*
X91744944Y-52334733D01*
X91645932Y-52304699D01*
X91440000Y-52284417D01*
X91234067Y-52304699D01*
X91036043Y-52364769D01*
X90853551Y-52462314D01*
X90693589Y-52593589D01*
X90562314Y-52753551D01*
X90464769Y-52936043D01*
X90404699Y-53134067D01*
X90384417Y-53340000D01*
X81880500Y-53340000D01*
X81880500Y-50799999D01*
X90384417Y-50799999D01*
X90404699Y-51005932D01*
X90404700Y-51005934D01*
X90464768Y-51203954D01*
X90562315Y-51386450D01*
X90613608Y-51448952D01*
X90693589Y-51546410D01*
X90773569Y-51612047D01*
X90853550Y-51677685D01*
X91036046Y-51775232D01*
X91234066Y-51835300D01*
X91440000Y-51855583D01*
X91645934Y-51835300D01*
X91843954Y-51775232D01*
X92026450Y-51677685D01*
X92186410Y-51546410D01*
X92317685Y-51386450D01*
X92415232Y-51203954D01*
X92475300Y-51005934D01*
X92495583Y-50800000D01*
X92475300Y-50594066D01*
X92415232Y-50396046D01*
X92317685Y-50213550D01*
X92252047Y-50133569D01*
X92186410Y-50053589D01*
X92088952Y-49973608D01*
X92026450Y-49922315D01*
X91843954Y-49824768D01*
X91744944Y-49794733D01*
X91645932Y-49764699D01*
X91440000Y-49744417D01*
X91234067Y-49764699D01*
X91036043Y-49824769D01*
X90853551Y-49922314D01*
X90693589Y-50053589D01*
X90562314Y-50213551D01*
X90464769Y-50396043D01*
X90404699Y-50594067D01*
X90384417Y-50799999D01*
X81880500Y-50799999D01*
X81880500Y-48260000D01*
X90384417Y-48260000D01*
X90404699Y-48465932D01*
X90404700Y-48465934D01*
X90464768Y-48663954D01*
X90562315Y-48846450D01*
X90613608Y-48908952D01*
X90693589Y-49006410D01*
X90773569Y-49072047D01*
X90853550Y-49137685D01*
X91036046Y-49235232D01*
X91234066Y-49295300D01*
X91440000Y-49315583D01*
X91645934Y-49295300D01*
X91843954Y-49235232D01*
X92026450Y-49137685D01*
X92186410Y-49006410D01*
X92317685Y-48846450D01*
X92415232Y-48663954D01*
X92475300Y-48465934D01*
X92495583Y-48260000D01*
X92475300Y-48054066D01*
X92415232Y-47856046D01*
X92317685Y-47673550D01*
X92252047Y-47593569D01*
X92186410Y-47513589D01*
X92088952Y-47433608D01*
X92026450Y-47382315D01*
X91843954Y-47284768D01*
X91744944Y-47254733D01*
X91645932Y-47224699D01*
X91440000Y-47204417D01*
X91234067Y-47224699D01*
X91036043Y-47284769D01*
X90853551Y-47382314D01*
X90693589Y-47513589D01*
X90562314Y-47673551D01*
X90464769Y-47856043D01*
X90404699Y-48054067D01*
X90384417Y-48260000D01*
X81880500Y-48260000D01*
X81880500Y-46589748D01*
X90389500Y-46589748D01*
X90401132Y-46648230D01*
X90445447Y-46714552D01*
X90511769Y-46758867D01*
X90570251Y-46770500D01*
X90570252Y-46770500D01*
X92309749Y-46770500D01*
X92338989Y-46764683D01*
X92368231Y-46758867D01*
X92434552Y-46714552D01*
X92478867Y-46648231D01*
X92490500Y-46589748D01*
X92490500Y-44850252D01*
X92478867Y-44791769D01*
X92478866Y-44791768D01*
X92434552Y-44725447D01*
X92368230Y-44681132D01*
X92309749Y-44669500D01*
X92309748Y-44669500D01*
X90570252Y-44669500D01*
X90570251Y-44669500D01*
X90511769Y-44681132D01*
X90445447Y-44725447D01*
X90401132Y-44791769D01*
X90389500Y-44850251D01*
X90389500Y-46589748D01*
X81880500Y-46589748D01*
X81880500Y-42312796D01*
X81900185Y-42245757D01*
X81916815Y-42225119D01*
X82636243Y-41505690D01*
X82648423Y-41495009D01*
X82673482Y-41475782D01*
X82692709Y-41450723D01*
X82703390Y-41438543D01*
X86041935Y-38099999D01*
X90384417Y-38099999D01*
X90404699Y-38305932D01*
X90404700Y-38305934D01*
X90464768Y-38503954D01*
X90562315Y-38686450D01*
X90613608Y-38748952D01*
X90693589Y-38846410D01*
X90773569Y-38912047D01*
X90853550Y-38977685D01*
X91036046Y-39075232D01*
X91234066Y-39135300D01*
X91440000Y-39155583D01*
X91645934Y-39135300D01*
X91843954Y-39075232D01*
X92026450Y-38977685D01*
X92186410Y-38846410D01*
X92317685Y-38686450D01*
X92415232Y-38503954D01*
X92475300Y-38305934D01*
X92495583Y-38100000D01*
X92475300Y-37894066D01*
X92415232Y-37696046D01*
X92317685Y-37513550D01*
X92252047Y-37433569D01*
X92186410Y-37353589D01*
X92088952Y-37273608D01*
X92026450Y-37222315D01*
X91913645Y-37162019D01*
X91843956Y-37124769D01*
X91843955Y-37124768D01*
X91843954Y-37124768D01*
X91744944Y-37094734D01*
X91645932Y-37064699D01*
X91440000Y-37044417D01*
X91234067Y-37064699D01*
X91036043Y-37124769D01*
X90853551Y-37222314D01*
X90693589Y-37353589D01*
X90562314Y-37513551D01*
X90464769Y-37696043D01*
X90404699Y-37894067D01*
X90384417Y-38099999D01*
X86041935Y-38099999D01*
X86979915Y-37162019D01*
X87041239Y-37128534D01*
X87067597Y-37125700D01*
X87810013Y-37125700D01*
X87826197Y-37126760D01*
X87857500Y-37130882D01*
X88014262Y-37110244D01*
X88160341Y-37049736D01*
X88285782Y-36953482D01*
X88382036Y-36828041D01*
X88442544Y-36681962D01*
X88463182Y-36525200D01*
X88442544Y-36368438D01*
X88382036Y-36222359D01*
X88285782Y-36096917D01*
X88160340Y-36000663D01*
X88014262Y-35940156D01*
X87857500Y-35919517D01*
X87829663Y-35923182D01*
X87826197Y-35923639D01*
X87810013Y-35924700D01*
X86814987Y-35924700D01*
X86798802Y-35923639D01*
X86794876Y-35923122D01*
X86767499Y-35919517D01*
X86732241Y-35924159D01*
X86728139Y-35924700D01*
X86669438Y-35932428D01*
X86610737Y-35940156D01*
X86464661Y-36000662D01*
X86414482Y-36039165D01*
X86339218Y-36096918D01*
X86339216Y-36096919D01*
X86339215Y-36096921D01*
X86319990Y-36121974D01*
X86309298Y-36134165D01*
X81854165Y-40589298D01*
X81841973Y-40599991D01*
X81816917Y-40619218D01*
X81797695Y-40644269D01*
X81787000Y-40656464D01*
X80888965Y-41554498D01*
X80876773Y-41565191D01*
X80851718Y-41584417D01*
X80827550Y-41615915D01*
X80755462Y-41709861D01*
X80694956Y-41855937D01*
X80674317Y-42012699D01*
X80678439Y-42044001D01*
X80679500Y-42060187D01*
X80679500Y-57495197D01*
X80659815Y-57562236D01*
X80634165Y-57591050D01*
X80533590Y-57673589D01*
X80402314Y-57833551D01*
X80304769Y-58016043D01*
X80244699Y-58214067D01*
X80224417Y-58419999D01*
X79790500Y-58419999D01*
X79790500Y-57550252D01*
X79778867Y-57491769D01*
X79778866Y-57491768D01*
X79734552Y-57425447D01*
X79668230Y-57381132D01*
X79609749Y-57369500D01*
X79609748Y-57369500D01*
X77870252Y-57369500D01*
X77870251Y-57369500D01*
X77811769Y-57381132D01*
X77745447Y-57425447D01*
X77701132Y-57491769D01*
X77689500Y-57550251D01*
X77689500Y-59289748D01*
X75946000Y-59289748D01*
X75946000Y-53339999D01*
X77684417Y-53339999D01*
X77704699Y-53545932D01*
X77704700Y-53545934D01*
X77764768Y-53743954D01*
X77862315Y-53926450D01*
X77913608Y-53988952D01*
X77993589Y-54086410D01*
X78073570Y-54152047D01*
X78153550Y-54217685D01*
X78336046Y-54315232D01*
X78534066Y-54375300D01*
X78740000Y-54395583D01*
X78945934Y-54375300D01*
X79143954Y-54315232D01*
X79326450Y-54217685D01*
X79486410Y-54086410D01*
X79617685Y-53926450D01*
X79715232Y-53743954D01*
X79775300Y-53545934D01*
X79795583Y-53340000D01*
X79775300Y-53134066D01*
X79715232Y-52936046D01*
X79617685Y-52753550D01*
X79552047Y-52673570D01*
X79486410Y-52593589D01*
X79388952Y-52513608D01*
X79326450Y-52462315D01*
X79143954Y-52364768D01*
X79044944Y-52334733D01*
X78945932Y-52304699D01*
X78740000Y-52284417D01*
X78534067Y-52304699D01*
X78336043Y-52364769D01*
X78153551Y-52462314D01*
X77993589Y-52593589D01*
X77862314Y-52753551D01*
X77764769Y-52936043D01*
X77704699Y-53134067D01*
X77684417Y-53339999D01*
X75946000Y-53339999D01*
X75946000Y-50800000D01*
X77684417Y-50800000D01*
X77704699Y-51005932D01*
X77704700Y-51005934D01*
X77764768Y-51203954D01*
X77862315Y-51386450D01*
X77913608Y-51448952D01*
X77993589Y-51546410D01*
X78073570Y-51612047D01*
X78153550Y-51677685D01*
X78336046Y-51775232D01*
X78534066Y-51835300D01*
X78740000Y-51855583D01*
X78945934Y-51835300D01*
X79143954Y-51775232D01*
X79326450Y-51677685D01*
X79486410Y-51546410D01*
X79617685Y-51386450D01*
X79715232Y-51203954D01*
X79775300Y-51005934D01*
X79795583Y-50800000D01*
X79775300Y-50594066D01*
X79715232Y-50396046D01*
X79617685Y-50213550D01*
X79552047Y-50133569D01*
X79486410Y-50053589D01*
X79388952Y-49973608D01*
X79326450Y-49922315D01*
X79143954Y-49824768D01*
X79044944Y-49794733D01*
X78945932Y-49764699D01*
X78740000Y-49744417D01*
X78534067Y-49764699D01*
X78336043Y-49824769D01*
X78153551Y-49922314D01*
X77993589Y-50053589D01*
X77862314Y-50213551D01*
X77764769Y-50396043D01*
X77704699Y-50594067D01*
X77684417Y-50800000D01*
X75946000Y-50800000D01*
X75946000Y-48260000D01*
X77684417Y-48260000D01*
X77704699Y-48465932D01*
X77704700Y-48465934D01*
X77764768Y-48663954D01*
X77862315Y-48846450D01*
X77913609Y-48908952D01*
X77993589Y-49006410D01*
X78073570Y-49072047D01*
X78153550Y-49137685D01*
X78336046Y-49235232D01*
X78534066Y-49295300D01*
X78740000Y-49315583D01*
X78945934Y-49295300D01*
X79143954Y-49235232D01*
X79326450Y-49137685D01*
X79486410Y-49006410D01*
X79617685Y-48846450D01*
X79715232Y-48663954D01*
X79775300Y-48465934D01*
X79795583Y-48260000D01*
X79775300Y-48054066D01*
X79715232Y-47856046D01*
X79617685Y-47673550D01*
X79552047Y-47593570D01*
X79486410Y-47513589D01*
X79388952Y-47433608D01*
X79326450Y-47382315D01*
X79143954Y-47284768D01*
X79044944Y-47254733D01*
X78945932Y-47224699D01*
X78762497Y-47206632D01*
X78740000Y-47204417D01*
X78739999Y-47204417D01*
X78534067Y-47224699D01*
X78336043Y-47284769D01*
X78153551Y-47382314D01*
X77993589Y-47513589D01*
X77862314Y-47673551D01*
X77764769Y-47856043D01*
X77704699Y-48054067D01*
X77684417Y-48260000D01*
X75946000Y-48260000D01*
X75946000Y-45719999D01*
X77684417Y-45719999D01*
X77704699Y-45925932D01*
X77704700Y-45925934D01*
X77764768Y-46123954D01*
X77862315Y-46306450D01*
X77913609Y-46368952D01*
X77993589Y-46466410D01*
X78073570Y-46532047D01*
X78153550Y-46597685D01*
X78336046Y-46695232D01*
X78534066Y-46755300D01*
X78740000Y-46775583D01*
X78945934Y-46755300D01*
X79143954Y-46695232D01*
X79326450Y-46597685D01*
X79486410Y-46466410D01*
X79617685Y-46306450D01*
X79715232Y-46123954D01*
X79775300Y-45925934D01*
X79795583Y-45720000D01*
X79775300Y-45514066D01*
X79715232Y-45316046D01*
X79617685Y-45133550D01*
X79552047Y-45053569D01*
X79486410Y-44973589D01*
X79336121Y-44850252D01*
X79326450Y-44842315D01*
X79143954Y-44744768D01*
X79044944Y-44714733D01*
X78945932Y-44684699D01*
X78762497Y-44666632D01*
X78740000Y-44664417D01*
X78739999Y-44664417D01*
X78534067Y-44684699D01*
X78336043Y-44744769D01*
X78153551Y-44842314D01*
X77993589Y-44973589D01*
X77862314Y-45133551D01*
X77764769Y-45316043D01*
X77704699Y-45514067D01*
X77684417Y-45719999D01*
X75946000Y-45719999D01*
X75946000Y-43180000D01*
X77684417Y-43180000D01*
X77704699Y-43385932D01*
X77704700Y-43385934D01*
X77764768Y-43583954D01*
X77862315Y-43766450D01*
X77913608Y-43828952D01*
X77993589Y-43926410D01*
X78073570Y-43992047D01*
X78153550Y-44057685D01*
X78336046Y-44155232D01*
X78534066Y-44215300D01*
X78740000Y-44235583D01*
X78945934Y-44215300D01*
X79143954Y-44155232D01*
X79326450Y-44057685D01*
X79486410Y-43926410D01*
X79617685Y-43766450D01*
X79715232Y-43583954D01*
X79775300Y-43385934D01*
X79795583Y-43180000D01*
X79775300Y-42974066D01*
X79715232Y-42776046D01*
X79617685Y-42593550D01*
X79552047Y-42513570D01*
X79486410Y-42433589D01*
X79339221Y-42312796D01*
X79326450Y-42302315D01*
X79143954Y-42204768D01*
X79044944Y-42174733D01*
X78945932Y-42144699D01*
X78740000Y-42124417D01*
X78534067Y-42144699D01*
X78336043Y-42204769D01*
X78153551Y-42302314D01*
X77993589Y-42433589D01*
X77862314Y-42593551D01*
X77764769Y-42776043D01*
X77704699Y-42974067D01*
X77684417Y-43180000D01*
X75946000Y-43180000D01*
X75946000Y-40640000D01*
X77684417Y-40640000D01*
X77704699Y-40845932D01*
X77704700Y-40845934D01*
X77764768Y-41043954D01*
X77862315Y-41226450D01*
X77913608Y-41288952D01*
X77993589Y-41386410D01*
X78057105Y-41438535D01*
X78153550Y-41517685D01*
X78336046Y-41615232D01*
X78534066Y-41675300D01*
X78740000Y-41695583D01*
X78945934Y-41675300D01*
X79143954Y-41615232D01*
X79326450Y-41517685D01*
X79486410Y-41386410D01*
X79617685Y-41226450D01*
X79715232Y-41043954D01*
X79775300Y-40845934D01*
X79795583Y-40640000D01*
X79775300Y-40434066D01*
X79715232Y-40236046D01*
X79617685Y-40053550D01*
X79552047Y-39973569D01*
X79486410Y-39893589D01*
X79388952Y-39813608D01*
X79326450Y-39762315D01*
X79143954Y-39664768D01*
X79044944Y-39634733D01*
X78945932Y-39604699D01*
X78740000Y-39584417D01*
X78534067Y-39604699D01*
X78336043Y-39664769D01*
X78153551Y-39762314D01*
X77993589Y-39893589D01*
X77862314Y-40053551D01*
X77764769Y-40236043D01*
X77704699Y-40434067D01*
X77684417Y-40640000D01*
X75946000Y-40640000D01*
X75946000Y-38099999D01*
X77684417Y-38099999D01*
X77704699Y-38305932D01*
X77704700Y-38305934D01*
X77764768Y-38503954D01*
X77862315Y-38686450D01*
X77913609Y-38748952D01*
X77993589Y-38846410D01*
X78073570Y-38912047D01*
X78153550Y-38977685D01*
X78336046Y-39075232D01*
X78534066Y-39135300D01*
X78740000Y-39155583D01*
X78945934Y-39135300D01*
X79143954Y-39075232D01*
X79326450Y-38977685D01*
X79486410Y-38846410D01*
X79617685Y-38686450D01*
X79715232Y-38503954D01*
X79775300Y-38305934D01*
X79795583Y-38100000D01*
X79775300Y-37894066D01*
X79715232Y-37696046D01*
X79617685Y-37513550D01*
X79552047Y-37433569D01*
X79486410Y-37353589D01*
X79388952Y-37273609D01*
X79326450Y-37222315D01*
X79213645Y-37162019D01*
X79143956Y-37124769D01*
X79143955Y-37124768D01*
X79143954Y-37124768D01*
X79044944Y-37094733D01*
X78945932Y-37064699D01*
X78762497Y-37046632D01*
X78740000Y-37044417D01*
X78739999Y-37044417D01*
X78534067Y-37064699D01*
X78336043Y-37124769D01*
X78153551Y-37222314D01*
X77993589Y-37353589D01*
X77862314Y-37513551D01*
X77764769Y-37696043D01*
X77704699Y-37894067D01*
X77684417Y-38099999D01*
X75946000Y-38099999D01*
X75946000Y-35560000D01*
X77684417Y-35560000D01*
X77704699Y-35765932D01*
X77704700Y-35765934D01*
X77764768Y-35963954D01*
X77862315Y-36146450D01*
X77913609Y-36208952D01*
X77993589Y-36306410D01*
X78069171Y-36368437D01*
X78153550Y-36437685D01*
X78336046Y-36535232D01*
X78534066Y-36595300D01*
X78740000Y-36615583D01*
X78945934Y-36595300D01*
X79143954Y-36535232D01*
X79326450Y-36437685D01*
X79486410Y-36306410D01*
X79617685Y-36146450D01*
X79715232Y-35963954D01*
X79775300Y-35765934D01*
X79795583Y-35560000D01*
X79795583Y-35559999D01*
X90384417Y-35559999D01*
X90404699Y-35765932D01*
X90404700Y-35765934D01*
X90464768Y-35963954D01*
X90562315Y-36146450D01*
X90613608Y-36208952D01*
X90693589Y-36306410D01*
X90769171Y-36368437D01*
X90853550Y-36437685D01*
X91036046Y-36535232D01*
X91234066Y-36595300D01*
X91440000Y-36615583D01*
X91645934Y-36595300D01*
X91843954Y-36535232D01*
X92026450Y-36437685D01*
X92186410Y-36306410D01*
X92317685Y-36146450D01*
X92415232Y-35963954D01*
X92475300Y-35765934D01*
X92495583Y-35560000D01*
X92475300Y-35354066D01*
X92415232Y-35156046D01*
X92317685Y-34973550D01*
X92252047Y-34893569D01*
X92186410Y-34813589D01*
X92088952Y-34733608D01*
X92026450Y-34682315D01*
X91843954Y-34584768D01*
X91744944Y-34554734D01*
X91645932Y-34524699D01*
X91462497Y-34506632D01*
X91440000Y-34504417D01*
X91439999Y-34504417D01*
X91234067Y-34524699D01*
X91036043Y-34584769D01*
X90853551Y-34682314D01*
X90693589Y-34813589D01*
X90562314Y-34973551D01*
X90464769Y-35156043D01*
X90404699Y-35354067D01*
X90384417Y-35559999D01*
X79795583Y-35559999D01*
X79775300Y-35354066D01*
X79715232Y-35156046D01*
X79617685Y-34973550D01*
X79552047Y-34893569D01*
X79486410Y-34813589D01*
X79388952Y-34733608D01*
X79326450Y-34682315D01*
X79143954Y-34584768D01*
X79044944Y-34554734D01*
X78945932Y-34524699D01*
X78740000Y-34504417D01*
X78534067Y-34524699D01*
X78336043Y-34584769D01*
X78153551Y-34682314D01*
X77993589Y-34813589D01*
X77862314Y-34973551D01*
X77764769Y-35156043D01*
X77704699Y-35354067D01*
X77684417Y-35560000D01*
X75946000Y-35560000D01*
X75946000Y-33019999D01*
X77684417Y-33019999D01*
X77704699Y-33225932D01*
X77704700Y-33225934D01*
X77764768Y-33423954D01*
X77862315Y-33606450D01*
X77913608Y-33668952D01*
X77993589Y-33766410D01*
X78073570Y-33832047D01*
X78153550Y-33897685D01*
X78336046Y-33995232D01*
X78534066Y-34055300D01*
X78740000Y-34075583D01*
X78945934Y-34055300D01*
X79143954Y-33995232D01*
X79326450Y-33897685D01*
X79486410Y-33766410D01*
X79617685Y-33606450D01*
X79715232Y-33423954D01*
X79775300Y-33225934D01*
X79795583Y-33020000D01*
X90384417Y-33020000D01*
X90404699Y-33225932D01*
X90404700Y-33225934D01*
X90464768Y-33423954D01*
X90562315Y-33606450D01*
X90613609Y-33668952D01*
X90693589Y-33766410D01*
X90773569Y-33832047D01*
X90853550Y-33897685D01*
X91036046Y-33995232D01*
X91234066Y-34055300D01*
X91440000Y-34075583D01*
X91645934Y-34055300D01*
X91843954Y-33995232D01*
X92026450Y-33897685D01*
X92186410Y-33766410D01*
X92317685Y-33606450D01*
X92415232Y-33423954D01*
X92475300Y-33225934D01*
X92495583Y-33020000D01*
X92475300Y-32814066D01*
X92415232Y-32616046D01*
X92317685Y-32433550D01*
X92252047Y-32353569D01*
X92186410Y-32273589D01*
X92088952Y-32193608D01*
X92026450Y-32142315D01*
X91843954Y-32044768D01*
X91744944Y-32014734D01*
X91645932Y-31984699D01*
X91440000Y-31964417D01*
X91234067Y-31984699D01*
X91036043Y-32044769D01*
X90853551Y-32142314D01*
X90693589Y-32273589D01*
X90562314Y-32433551D01*
X90464769Y-32616043D01*
X90404699Y-32814067D01*
X90384417Y-33020000D01*
X79795583Y-33020000D01*
X79775300Y-32814066D01*
X79715232Y-32616046D01*
X79617685Y-32433550D01*
X79552047Y-32353569D01*
X79486410Y-32273589D01*
X79388952Y-32193609D01*
X79326450Y-32142315D01*
X79143954Y-32044768D01*
X79044944Y-32014734D01*
X78945932Y-31984699D01*
X78762497Y-31966632D01*
X78740000Y-31964417D01*
X78739999Y-31964417D01*
X78534067Y-31984699D01*
X78336043Y-32044769D01*
X78153551Y-32142314D01*
X77993589Y-32273589D01*
X77862314Y-32433551D01*
X77764769Y-32616043D01*
X77704699Y-32814067D01*
X77684417Y-33019999D01*
X75946000Y-33019999D01*
X75946000Y-31349748D01*
X77689500Y-31349748D01*
X77701132Y-31408230D01*
X77745447Y-31474552D01*
X77811769Y-31518867D01*
X77870251Y-31530500D01*
X77870252Y-31530500D01*
X79609749Y-31530500D01*
X79638989Y-31524683D01*
X79668231Y-31518867D01*
X79734552Y-31474552D01*
X79778867Y-31408231D01*
X79790500Y-31349748D01*
X90389500Y-31349748D01*
X90401132Y-31408230D01*
X90445447Y-31474552D01*
X90511769Y-31518867D01*
X90570251Y-31530500D01*
X90570252Y-31530500D01*
X92309749Y-31530500D01*
X92338989Y-31524683D01*
X92368231Y-31518867D01*
X92434552Y-31474552D01*
X92478867Y-31408231D01*
X92490500Y-31349748D01*
X92490500Y-29610252D01*
X92478867Y-29551769D01*
X92478866Y-29551769D01*
X92434552Y-29485447D01*
X92368230Y-29441132D01*
X92309749Y-29429500D01*
X92309748Y-29429500D01*
X90570252Y-29429500D01*
X90570251Y-29429500D01*
X90511769Y-29441132D01*
X90445447Y-29485447D01*
X90401132Y-29551769D01*
X90389500Y-29610251D01*
X90389500Y-31349748D01*
X79790500Y-31349748D01*
X79790500Y-29610252D01*
X79778867Y-29551769D01*
X79778866Y-29551768D01*
X79734552Y-29485447D01*
X79668230Y-29441132D01*
X79609749Y-29429500D01*
X79609748Y-29429500D01*
X77870252Y-29429500D01*
X77870251Y-29429500D01*
X77811769Y-29441132D01*
X77745447Y-29485447D01*
X77701132Y-29551769D01*
X77689500Y-29610251D01*
X77689500Y-31349748D01*
X75946000Y-31349748D01*
X75946000Y-26269748D01*
X87849500Y-26269748D01*
X87861132Y-26328230D01*
X87905447Y-26394552D01*
X87971769Y-26438867D01*
X88030251Y-26450500D01*
X88030252Y-26450500D01*
X89769749Y-26450500D01*
X89798989Y-26444683D01*
X89828231Y-26438867D01*
X89894552Y-26394552D01*
X89938867Y-26328231D01*
X89950500Y-26269748D01*
X89950500Y-25400000D01*
X90384417Y-25400000D01*
X90404699Y-25605932D01*
X90404700Y-25605934D01*
X90464768Y-25803954D01*
X90562315Y-25986450D01*
X90613609Y-26048952D01*
X90693589Y-26146410D01*
X90773569Y-26212047D01*
X90853550Y-26277685D01*
X91036046Y-26375232D01*
X91234066Y-26435300D01*
X91440000Y-26455583D01*
X91645934Y-26435300D01*
X91843954Y-26375232D01*
X92026450Y-26277685D01*
X92186410Y-26146410D01*
X92317685Y-25986450D01*
X92415232Y-25803954D01*
X92475300Y-25605934D01*
X92495583Y-25400000D01*
X92475300Y-25194066D01*
X92415232Y-24996046D01*
X92317685Y-24813550D01*
X92252047Y-24733569D01*
X92186410Y-24653589D01*
X92036121Y-24530252D01*
X92026450Y-24522315D01*
X91843954Y-24424768D01*
X91744944Y-24394734D01*
X91645932Y-24364699D01*
X91440000Y-24344417D01*
X91234067Y-24364699D01*
X91036043Y-24424769D01*
X90853551Y-24522314D01*
X90693589Y-24653589D01*
X90562314Y-24813551D01*
X90464769Y-24996043D01*
X90404699Y-25194067D01*
X90384417Y-25400000D01*
X89950500Y-25400000D01*
X89950500Y-24530252D01*
X89938867Y-24471769D01*
X89938866Y-24471769D01*
X89894552Y-24405447D01*
X89828230Y-24361132D01*
X89769749Y-24349500D01*
X89769748Y-24349500D01*
X88030252Y-24349500D01*
X88030251Y-24349500D01*
X87971769Y-24361132D01*
X87905447Y-24405447D01*
X87861132Y-24471769D01*
X87849500Y-24530251D01*
X87849500Y-26269748D01*
X75946000Y-26269748D01*
X75946000Y-23492500D01*
X75965685Y-23425461D01*
X76018489Y-23379706D01*
X76070000Y-23368500D01*
X94110000Y-23368500D01*
X94177039Y-23388185D01*
G37*
%TD.AperFunction*%
%TD*%
M02*
